<?xml version="1.0" encoding="utf-8"?>
<!-- Generator: Adobe Illustrator 24.1.2, SVG Export Plug-In . SVG Version: 6.00 Build 0)  -->
<svg version="1.1" id="Capa_1" xmlns="http://www.w3.org/2000/svg" xmlns:xlink="http://www.w3.org/1999/xlink" x="0px" y="0px"
	 viewBox="0 0 512 512" style="enable-background:new 0 0 512 512;" xml:space="preserve">
<g>
	<g>
		<path d="M332.9,29.6l-1.7-24c-0.2-3.1-2.9-5.4-5.9-5.2L15.1,22.2c-3.1,0.2-5.4,2.9-5.2,5.9l29.5,420c0.2,3.1,2.9,5.4,5.9,5.2
			l32.5-2.3c3.2-0.2,6,2.3,6,5.6v49.8c0,3.1,2.5,5.6,5.6,5.6h310.9c3.1,0,5.6-2.5,5.6-5.6v-23.5c0-3.3,2.9-5.9,6.2-5.5l38.6,4.2
			c3.1,0.3,5.8-1.9,6.1-4.9L501.9,58c0.3-3.1-1.9-5.8-4.9-6.1L337.8,34.7C335.2,34.4,333.1,32.3,332.9,29.6z M78.7,420.9l-5.4,0.4
			c-3.1,0.2-5.7-2.1-5.9-5.2L42,56c-0.2-3.1,2.1-5.7,5.2-5.9l250.3-17.6c3.1-0.2,5.7,2.1,5.9,5.2l2.5,36.3c0.2,3.2-2.3,6-5.6,6H89.4
			c-3.1,0-5.6,2.5-5.6,5.6v329.9C83.9,418.3,81.6,420.7,78.7,420.9z M370.3,482H119.5c-3.1,0-5.6-2.5-5.6-5.6v-361
			c0-3.1,2.5-5.6,5.6-5.6h250.9c3.1,0,5.6,2.5,5.6,5.6v361C375.9,479.5,373.4,482,370.3,482z M424,448.5l-13.1-1.4
			c-2.8-0.3-5-2.7-5-5.5V85.4c0-3.1-2.5-5.6-5.6-5.6h-58.8c-2.9,0-5.3-2.3-5.6-5.2l-0.2-3.4c-0.2-3.5,2.7-6.3,6.1-5.9l121.9,13.1
			c3.1,0.3,5.3,3.1,4.9,6.1l-38.6,358.9C429.8,446.6,427.1,448.8,424,448.5z"/>
	</g>
</g>
<g>
	<g>
		<path d="M161.5,296.7h166.8c8,0,14.5,6.5,14.5,14.5v1c0,8-6.5,14.5-14.5,14.5H161.5c-8,0-14.5-6.5-14.5-14.5v-1
			C147,303.2,153.5,296.7,161.5,296.7z"/>
	</g>
</g>
<g>
	<g>
		<path d="M161.5,350.1h166.8c8,0,14.5,6.5,14.5,14.5v1c0,8-6.5,14.5-14.5,14.5H161.5c-8,0-14.5-6.5-14.5-14.5v-1
			C147,356.6,153.5,350.1,161.5,350.1z"/>
	</g>
</g>
<g>
	<g>
		<path d="M161.5,403.5h166.8c8,0,14.5,6.5,14.5,14.5v1c0,8-6.5,14.5-14.5,14.5H161.5c-8,0-14.5-6.5-14.5-14.5v-1
			C147,410,153.5,403.5,161.5,403.5z"/>
	</g>
</g>
<g>
	<g>
		<path d="M201.4,229.3c-13.2,0-22.2-9.2-22.2-23.6s8.9-23.6,22.2-23.6c7.1,0,13,2.9,17.9,7.9c1.6,1.7,4.3,1.8,6,0.3l13.7-12.3
			c1.8-1.6,2-4.4,0.3-6.1c-9.3-10-22.9-15.6-39.6-15.6c-30.4,0-52.7,20.4-52.7,49.4s22.3,49.4,52.7,49.4c16.7,0,30.3-5.5,39.6-15.6
			c1.6-1.8,1.5-4.5-0.3-6.1l-13.7-12.3c-1.7-1.6-4.4-1.4-6,0.3C214.3,226.4,208.5,229.3,201.4,229.3z"/>
	</g>
</g>
<g>
	<g>
		<path d="M320,161l-18,43c-1.5,3.6-6.5,3.5-8,0l-17.5-42.9c-0.7-1.6-2.2-2.7-4-2.7h-24.9c-3.1,0-5.2,3.2-4,6l36.3,85.9
			c0.7,1.6,2.2,2.6,4,2.6h25.6c1.7,0,3.3-1,4-2.6l36.3-85.9c1.2-2.8-0.9-6-4-6H324C322.2,158.4,320.6,159.4,320,161z"/>
	</g>
</g>
</svg>
